<svg xmlns="http://www.w3.org/2000/svg" viewBox="0 0 400 300" role="img" aria-label="Colorful Diwali fireworks gift box">
  <defs>
    <linearGradient id="box" x1="0" y1="0" x2="1" y2="1">
      <stop offset="0" stop-color="#e11d48"/>
      <stop offset="1" stop-color="#9f1239"/>
    </linearGradient>
    <linearGradient id="lid" x1="0" y1="0" x2="1" y2="0">
      <stop offset="0" stop-color="#fbbf24"/>
      <stop offset="1" stop-color="#f59e0b"/>
    </linearGradient>
  </defs>
  <rect width="400" height="300" rx="24" fill="#fff8ed"/>
  <g fill="none" stroke="#f59e0b" stroke-width="5" stroke-linecap="round">
    <path d="M63 67v-20m0 58V85M43 76H24m78 0H83M49 62 35 48m56 56L77 90m0-28 14-14m-56 56 14-14"/>
    <path d="M330 69V51m0 54V87m-18-9h-18m72 0h-18m-31-13-13-13m52 52-13-13m0-26 13-13m-52 52 13-13"/>
  </g>
  <g fill="#e11d48">
    <circle cx="63" cy="76" r="7"/><circle cx="330" cy="78" r="7"/>
    <path d="m121 68 5 11 12 1-9 8 3 12-11-6-10 6 2-12-9-8 12-1z"/>
    <path d="m276 50 4 9 10 1-8 7 2 10-8-5-9 5 2-10-7-7 10-1z"/>
  </g>
  <ellipse cx="200" cy="260" rx="126" ry="15" fill="#ead7c4"/>
  <path d="M95 139h210v104H95z" fill="url(#box)"/>
  <path d="M95 139h210v25H95z" fill="#be123c"/>
  <path d="M184 139h32v104h-32z" fill="#fbbf24"/>
  <path d="M80 116h240v31H80z" fill="url(#lid)"/>
  <path d="M184 116h32v31h-32z" fill="#fcd34d"/>
  <path d="M200 117c-33-11-48-31-35-41 12-9 29 11 35 31 6-20 23-40 35-31 13 10-2 30-35 41z" fill="none" stroke="#be123c" stroke-width="10" stroke-linejoin="round"/>
  <circle cx="137" cy="193" r="19" fill="#fff1f2" opacity=".95"/>
  <path d="M137 180v26m-13-13h26m-22-9 18 18m0-18-18 18" stroke="#f59e0b" stroke-width="3" stroke-linecap="round"/>
  <circle cx="263" cy="193" r="19" fill="#fff1f2" opacity=".95"/>
  <path d="M263 180v26m-13-13h26m-22-9 18 18m0-18-18 18" stroke="#f59e0b" stroke-width="3" stroke-linecap="round"/>
  <path d="M146 226h108" stroke="#fda4af" stroke-width="4" stroke-linecap="round"/>
</svg>
